<svg xmlns="http://www.w3.org/2000/svg" viewBox="0 0 516 516"><rect fill="#ffffff" width="516" height="516"/><path fill="#0f172b" d="M36,36h12v12h-12zM48,36h12v12h-12zM60,36h12v12h-12zM72,36h12v12h-12zM84,36h12v12h-12zM96,36h12v12h-12zM108,36h12v12h-12zM132,36h12v12h-12zM144,36h12v12h-12zM156,36h12v12h-12zM180,36h12v12h-12zM204,36h12v12h-12zM228,36h12v12h-12zM276,36h12v12h-12zM300,36h12v12h-12zM324,36h12v12h-12zM336,36h12v12h-12zM372,36h12v12h-12zM396,36h12v12h-12zM408,36h12v12h-12zM420,36h12v12h-12zM432,36h12v12h-12zM444,36h12v12h-12zM456,36h12v12h-12zM468,36h12v12h-12zM36,48h12v12h-12zM108,48h12v12h-12zM132,48h12v12h-12zM168,48h12v12h-12zM180,48h12v12h-12zM192,48h12v12h-12zM204,48h12v12h-12zM216,48h12v12h-12zM228,48h12v12h-12zM240,48h12v12h-12zM264,48h12v12h-12zM312,48h12v12h-12zM360,48h12v12h-12zM372,48h12v12h-12zM396,48h12v12h-12zM468,48h12v12h-12zM36,60h12v12h-12zM60,60h12v12h-12zM72,60h12v12h-12zM84,60h12v12h-12zM108,60h12v12h-12zM132,60h12v12h-12zM156,60h12v12h-12zM192,60h12v12h-12zM216,60h12v12h-12zM228,60h12v12h-12zM276,60h12v12h-12zM288,60h12v12h-12zM300,60h12v12h-12zM312,60h12v12h-12zM324,60h12v12h-12zM372,60h12v12h-12zM396,60h12v12h-12zM420,60h12v12h-12zM432,60h12v12h-12zM444,60h12v12h-12zM468,60h12v12h-12zM36,72h12v12h-12zM60,72h12v12h-12zM72,72h12v12h-12zM84,72h12v12h-12zM108,72h12v12h-12zM144,72h12v12h-12zM156,72h12v12h-12zM192,72h12v12h-12zM204,72h12v12h-12zM276,72h12v12h-12zM300,72h12v12h-12zM312,72h12v12h-12zM348,72h12v12h-12zM396,72h12v12h-12zM420,72h12v12h-12zM432,72h12v12h-12zM444,72h12v12h-12zM468,72h12v12h-12zM36,84h12v12h-12zM60,84h12v12h-12zM72,84h12v12h-12zM84,84h12v12h-12zM108,84h12v12h-12zM144,84h12v12h-12zM156,84h12v12h-12zM168,84h12v12h-12zM204,84h12v12h-12zM216,84h12v12h-12zM252,84h12v12h-12zM264,84h12v12h-12zM276,84h12v12h-12zM288,84h12v12h-12zM324,84h12v12h-12zM396,84h12v12h-12zM420,84h12v12h-12zM432,84h12v12h-12zM444,84h12v12h-12zM468,84h12v12h-12zM36,96h12v12h-12zM108,96h12v12h-12zM132,96h12v12h-12zM168,96h12v12h-12zM204,96h12v12h-12zM216,96h12v12h-12zM228,96h12v12h-12zM240,96h12v12h-12zM252,96h12v12h-12zM276,96h12v12h-12zM360,96h12v12h-12zM372,96h12v12h-12zM396,96h12v12h-12zM468,96h12v12h-12zM36,108h12v12h-12zM48,108h12v12h-12zM60,108h12v12h-12zM72,108h12v12h-12zM84,108h12v12h-12zM96,108h12v12h-12zM108,108h12v12h-12zM132,108h12v12h-12zM156,108h12v12h-12zM180,108h12v12h-12zM204,108h12v12h-12zM228,108h12v12h-12zM252,108h12v12h-12zM276,108h12v12h-12zM300,108h12v12h-12zM324,108h12v12h-12zM348,108h12v12h-12zM372,108h12v12h-12zM396,108h12v12h-12zM408,108h12v12h-12zM420,108h12v12h-12zM432,108h12v12h-12zM444,108h12v12h-12zM456,108h12v12h-12zM468,108h12v12h-12zM132,120h12v12h-12zM180,120h12v12h-12zM228,120h12v12h-12zM240,120h12v12h-12zM264,120h12v12h-12zM276,120h12v12h-12zM348,120h12v12h-12zM372,120h12v12h-12zM60,132h12v12h-12zM72,132h12v12h-12zM84,132h12v12h-12zM108,132h12v12h-12zM132,132h12v12h-12zM156,132h12v12h-12zM180,132h12v12h-12zM204,132h12v12h-12zM228,132h12v12h-12zM240,132h12v12h-12zM264,132h12v12h-12zM288,132h12v12h-12zM312,132h12v12h-12zM384,132h12v12h-12zM396,132h12v12h-12zM408,132h12v12h-12zM444,132h12v12h-12zM456,132h12v12h-12zM468,132h12v12h-12zM60,144h12v12h-12zM72,144h12v12h-12zM132,144h12v12h-12zM156,144h12v12h-12zM168,144h12v12h-12zM180,144h12v12h-12zM192,144h12v12h-12zM204,144h12v12h-12zM216,144h12v12h-12zM228,144h12v12h-12zM240,144h12v12h-12zM252,144h12v12h-12zM264,144h12v12h-12zM276,144h12v12h-12zM312,144h12v12h-12zM324,144h12v12h-12zM336,144h12v12h-12zM348,144h12v12h-12zM360,144h12v12h-12zM372,144h12v12h-12zM384,144h12v12h-12zM396,144h12v12h-12zM432,144h12v12h-12zM444,144h12v12h-12zM456,144h12v12h-12zM468,144h12v12h-12zM96,156h12v12h-12zM108,156h12v12h-12zM168,156h12v12h-12zM180,156h12v12h-12zM192,156h12v12h-12zM228,156h12v12h-12zM240,156h12v12h-12zM252,156h12v12h-12zM276,156h12v12h-12zM312,156h12v12h-12zM336,156h12v12h-12zM348,156h12v12h-12zM396,156h12v12h-12zM408,156h12v12h-12zM432,156h12v12h-12zM456,156h12v12h-12zM468,156h12v12h-12zM36,168h12v12h-12zM84,168h12v12h-12zM144,168h12v12h-12zM156,168h12v12h-12zM168,168h12v12h-12zM192,168h12v12h-12zM216,168h12v12h-12zM252,168h12v12h-12zM264,168h12v12h-12zM276,168h12v12h-12zM300,168h12v12h-12zM312,168h12v12h-12zM348,168h12v12h-12zM372,168h12v12h-12zM396,168h12v12h-12zM432,168h12v12h-12zM456,168h12v12h-12zM48,180h12v12h-12zM96,180h12v12h-12zM108,180h12v12h-12zM168,180h12v12h-12zM228,180h12v12h-12zM252,180h12v12h-12zM276,180h12v12h-12zM300,180h12v12h-12zM312,180h12v12h-12zM324,180h12v12h-12zM336,180h12v12h-12zM348,180h12v12h-12zM384,180h12v12h-12zM396,180h12v12h-12zM420,180h12v12h-12zM444,180h12v12h-12zM468,180h12v12h-12zM96,192h12v12h-12zM144,192h12v12h-12zM192,192h12v12h-12zM216,192h12v12h-12zM240,192h12v12h-12zM276,192h12v12h-12zM288,192h12v12h-12zM312,192h12v12h-12zM324,192h12v12h-12zM372,192h12v12h-12zM384,192h12v12h-12zM408,192h12v12h-12zM432,192h12v12h-12zM444,192h12v12h-12zM48,204h12v12h-12zM60,204h12v12h-12zM72,204h12v12h-12zM84,204h12v12h-12zM108,204h12v12h-12zM120,204h12v12h-12zM144,204h12v12h-12zM156,204h12v12h-12zM168,204h12v12h-12zM180,204h12v12h-12zM192,204h12v12h-12zM240,204h12v12h-12zM252,204h12v12h-12zM264,204h12v12h-12zM288,204h12v12h-12zM300,204h12v12h-12zM312,204h12v12h-12zM324,204h12v12h-12zM348,204h12v12h-12zM360,204h12v12h-12zM372,204h12v12h-12zM384,204h12v12h-12zM396,204h12v12h-12zM432,204h12v12h-12zM456,204h12v12h-12zM468,204h12v12h-12zM72,216h12v12h-12zM96,216h12v12h-12zM156,216h12v12h-12zM216,216h12v12h-12zM228,216h12v12h-12zM252,216h12v12h-12zM264,216h12v12h-12zM276,216h12v12h-12zM288,216h12v12h-12zM300,216h12v12h-12zM324,216h12v12h-12zM348,216h12v12h-12zM360,216h12v12h-12zM372,216h12v12h-12zM384,216h12v12h-12zM408,216h12v12h-12zM420,216h12v12h-12zM48,228h12v12h-12zM60,228h12v12h-12zM84,228h12v12h-12zM96,228h12v12h-12zM108,228h12v12h-12zM144,228h12v12h-12zM156,228h12v12h-12zM168,228h12v12h-12zM180,228h12v12h-12zM192,228h12v12h-12zM228,228h12v12h-12zM264,228h12v12h-12zM276,228h12v12h-12zM288,228h12v12h-12zM300,228h12v12h-12zM312,228h12v12h-12zM348,228h12v12h-12zM384,228h12v12h-12zM396,228h12v12h-12zM420,228h12v12h-12zM444,228h12v12h-12zM468,228h12v12h-12zM36,240h12v12h-12zM84,240h12v12h-12zM120,240h12v12h-12zM132,240h12v12h-12zM144,240h12v12h-12zM168,240h12v12h-12zM204,240h12v12h-12zM216,240h12v12h-12zM252,240h12v12h-12zM276,240h12v12h-12zM288,240h12v12h-12zM312,240h12v12h-12zM324,240h12v12h-12zM336,240h12v12h-12zM408,240h12v12h-12zM444,240h12v12h-12zM60,252h12v12h-12zM72,252h12v12h-12zM84,252h12v12h-12zM108,252h12v12h-12zM132,252h12v12h-12zM144,252h12v12h-12zM192,252h12v12h-12zM204,252h12v12h-12zM216,252h12v12h-12zM228,252h12v12h-12zM252,252h12v12h-12zM264,252h12v12h-12zM288,252h12v12h-12zM300,252h12v12h-12zM312,252h12v12h-12zM324,252h12v12h-12zM348,252h12v12h-12zM360,252h12v12h-12zM372,252h12v12h-12zM384,252h12v12h-12zM396,252h12v12h-12zM420,252h12v12h-12zM456,252h12v12h-12zM468,252h12v12h-12zM36,264h12v12h-12zM48,264h12v12h-12zM84,264h12v12h-12zM96,264h12v12h-12zM120,264h12v12h-12zM144,264h12v12h-12zM156,264h12v12h-12zM180,264h12v12h-12zM192,264h12v12h-12zM204,264h12v12h-12zM228,264h12v12h-12zM252,264h12v12h-12zM264,264h12v12h-12zM288,264h12v12h-12zM360,264h12v12h-12zM372,264h12v12h-12zM396,264h12v12h-12zM408,264h12v12h-12zM420,264h12v12h-12zM456,264h12v12h-12zM36,276h12v12h-12zM60,276h12v12h-12zM72,276h12v12h-12zM108,276h12v12h-12zM132,276h12v12h-12zM156,276h12v12h-12zM168,276h12v12h-12zM204,276h12v12h-12zM216,276h12v12h-12zM228,276h12v12h-12zM252,276h12v12h-12zM264,276h12v12h-12zM288,276h12v12h-12zM300,276h12v12h-12zM324,276h12v12h-12zM336,276h12v12h-12zM348,276h12v12h-12zM360,276h12v12h-12zM396,276h12v12h-12zM408,276h12v12h-12zM420,276h12v12h-12zM444,276h12v12h-12zM468,276h12v12h-12zM36,288h12v12h-12zM72,288h12v12h-12zM120,288h12v12h-12zM132,288h12v12h-12zM192,288h12v12h-12zM216,288h12v12h-12zM228,288h12v12h-12zM240,288h12v12h-12zM276,288h12v12h-12zM300,288h12v12h-12zM324,288h12v12h-12zM336,288h12v12h-12zM384,288h12v12h-12zM408,288h12v12h-12zM60,300h12v12h-12zM84,300h12v12h-12zM96,300h12v12h-12zM108,300h12v12h-12zM132,300h12v12h-12zM156,300h12v12h-12zM180,300h12v12h-12zM192,300h12v12h-12zM204,300h12v12h-12zM216,300h12v12h-12zM228,300h12v12h-12zM252,300h12v12h-12zM264,300h12v12h-12zM300,300h12v12h-12zM312,300h12v12h-12zM324,300h12v12h-12zM336,300h12v12h-12zM348,300h12v12h-12zM360,300h12v12h-12zM384,300h12v12h-12zM444,300h12v12h-12zM456,300h12v12h-12zM468,300h12v12h-12zM48,312h12v12h-12zM60,312h12v12h-12zM72,312h12v12h-12zM84,312h12v12h-12zM96,312h12v12h-12zM120,312h12v12h-12zM132,312h12v12h-12zM180,312h12v12h-12zM192,312h12v12h-12zM216,312h12v12h-12zM228,312h12v12h-12zM240,312h12v12h-12zM264,312h12v12h-12zM288,312h12v12h-12zM324,312h12v12h-12zM336,312h12v12h-12zM408,312h12v12h-12zM468,312h12v12h-12zM36,324h12v12h-12zM72,324h12v12h-12zM84,324h12v12h-12zM108,324h12v12h-12zM132,324h12v12h-12zM216,324h12v12h-12zM240,324h12v12h-12zM264,324h12v12h-12zM300,324h12v12h-12zM312,324h12v12h-12zM324,324h12v12h-12zM348,324h12v12h-12zM372,324h12v12h-12zM384,324h12v12h-12zM432,324h12v12h-12zM444,324h12v12h-12zM468,324h12v12h-12zM36,336h12v12h-12zM48,336h12v12h-12zM84,336h12v12h-12zM120,336h12v12h-12zM144,336h12v12h-12zM156,336h12v12h-12zM168,336h12v12h-12zM180,336h12v12h-12zM192,336h12v12h-12zM216,336h12v12h-12zM240,336h12v12h-12zM276,336h12v12h-12zM288,336h12v12h-12zM360,336h12v12h-12zM396,336h12v12h-12zM408,336h12v12h-12zM420,336h12v12h-12zM432,336h12v12h-12zM444,336h12v12h-12zM468,336h12v12h-12zM36,348h12v12h-12zM60,348h12v12h-12zM84,348h12v12h-12zM108,348h12v12h-12zM120,348h12v12h-12zM132,348h12v12h-12zM144,348h12v12h-12zM180,348h12v12h-12zM252,348h12v12h-12zM264,348h12v12h-12zM312,348h12v12h-12zM324,348h12v12h-12zM336,348h12v12h-12zM348,348h12v12h-12zM360,348h12v12h-12zM372,348h12v12h-12zM396,348h12v12h-12zM420,348h12v12h-12zM456,348h12v12h-12zM468,348h12v12h-12zM36,360h12v12h-12zM60,360h12v12h-12zM72,360h12v12h-12zM96,360h12v12h-12zM120,360h12v12h-12zM132,360h12v12h-12zM144,360h12v12h-12zM156,360h12v12h-12zM192,360h12v12h-12zM204,360h12v12h-12zM228,360h12v12h-12zM264,360h12v12h-12zM312,360h12v12h-12zM360,360h12v12h-12zM384,360h12v12h-12zM408,360h12v12h-12zM420,360h12v12h-12zM432,360h12v12h-12zM36,372h12v12h-12zM60,372h12v12h-12zM84,372h12v12h-12zM96,372h12v12h-12zM108,372h12v12h-12zM144,372h12v12h-12zM156,372h12v12h-12zM168,372h12v12h-12zM192,372h12v12h-12zM216,372h12v12h-12zM228,372h12v12h-12zM264,372h12v12h-12zM276,372h12v12h-12zM300,372h12v12h-12zM312,372h12v12h-12zM336,372h12v12h-12zM348,372h12v12h-12zM360,372h12v12h-12zM372,372h12v12h-12zM384,372h12v12h-12zM396,372h12v12h-12zM408,372h12v12h-12zM420,372h12v12h-12zM432,372h12v12h-12zM468,372h12v12h-12zM132,384h12v12h-12zM144,384h12v12h-12zM180,384h12v12h-12zM192,384h12v12h-12zM216,384h12v12h-12zM228,384h12v12h-12zM240,384h12v12h-12zM264,384h12v12h-12zM300,384h12v12h-12zM336,384h12v12h-12zM360,384h12v12h-12zM372,384h12v12h-12zM420,384h12v12h-12zM456,384h12v12h-12zM36,396h12v12h-12zM48,396h12v12h-12zM60,396h12v12h-12zM72,396h12v12h-12zM84,396h12v12h-12zM96,396h12v12h-12zM108,396h12v12h-12zM144,396h12v12h-12zM156,396h12v12h-12zM168,396h12v12h-12zM180,396h12v12h-12zM204,396h12v12h-12zM252,396h12v12h-12zM300,396h12v12h-12zM324,396h12v12h-12zM348,396h12v12h-12zM372,396h12v12h-12zM396,396h12v12h-12zM420,396h12v12h-12zM432,396h12v12h-12zM456,396h12v12h-12zM468,396h12v12h-12zM36,408h12v12h-12zM108,408h12v12h-12zM180,408h12v12h-12zM192,408h12v12h-12zM204,408h12v12h-12zM216,408h12v12h-12zM228,408h12v12h-12zM240,408h12v12h-12zM276,408h12v12h-12zM288,408h12v12h-12zM300,408h12v12h-12zM312,408h12v12h-12zM348,408h12v12h-12zM372,408h12v12h-12zM420,408h12v12h-12zM456,408h12v12h-12zM36,420h12v12h-12zM60,420h12v12h-12zM72,420h12v12h-12zM84,420h12v12h-12zM108,420h12v12h-12zM132,420h12v12h-12zM144,420h12v12h-12zM156,420h12v12h-12zM192,420h12v12h-12zM204,420h12v12h-12zM228,420h12v12h-12zM240,420h12v12h-12zM252,420h12v12h-12zM264,420h12v12h-12zM276,420h12v12h-12zM288,420h12v12h-12zM312,420h12v12h-12zM336,420h12v12h-12zM360,420h12v12h-12zM372,420h12v12h-12zM384,420h12v12h-12zM396,420h12v12h-12zM408,420h12v12h-12zM420,420h12v12h-12zM444,420h12v12h-12zM456,420h12v12h-12zM36,432h12v12h-12zM60,432h12v12h-12zM72,432h12v12h-12zM84,432h12v12h-12zM108,432h12v12h-12zM132,432h12v12h-12zM144,432h12v12h-12zM156,432h12v12h-12zM168,432h12v12h-12zM180,432h12v12h-12zM216,432h12v12h-12zM228,432h12v12h-12zM240,432h12v12h-12zM300,432h12v12h-12zM324,432h12v12h-12zM336,432h12v12h-12zM348,432h12v12h-12zM360,432h12v12h-12zM372,432h12v12h-12zM396,432h12v12h-12zM432,432h12v12h-12zM36,444h12v12h-12zM60,444h12v12h-12zM72,444h12v12h-12zM84,444h12v12h-12zM108,444h12v12h-12zM132,444h12v12h-12zM168,444h12v12h-12zM180,444h12v12h-12zM204,444h12v12h-12zM228,444h12v12h-12zM240,444h12v12h-12zM264,444h12v12h-12zM276,444h12v12h-12zM348,444h12v12h-12zM384,444h12v12h-12zM408,444h12v12h-12zM444,444h12v12h-12zM468,444h12v12h-12zM36,456h12v12h-12zM108,456h12v12h-12zM144,456h12v12h-12zM156,456h12v12h-12zM168,456h12v12h-12zM204,456h12v12h-12zM228,456h12v12h-12zM264,456h12v12h-12zM324,456h12v12h-12zM348,456h12v12h-12zM360,456h12v12h-12zM372,456h12v12h-12zM384,456h12v12h-12zM408,456h12v12h-12zM432,456h12v12h-12zM468,456h12v12h-12zM36,468h12v12h-12zM48,468h12v12h-12zM60,468h12v12h-12zM72,468h12v12h-12zM84,468h12v12h-12zM96,468h12v12h-12zM108,468h12v12h-12zM168,468h12v12h-12zM180,468h12v12h-12zM192,468h12v12h-12zM204,468h12v12h-12zM216,468h12v12h-12zM252,468h12v12h-12zM264,468h12v12h-12zM288,468h12v12h-12zM300,468h12v12h-12zM324,468h12v12h-12zM336,468h12v12h-12zM348,468h12v12h-12zM396,468h12v12h-12zM408,468h12v12h-12zM432,468h12v12h-12zM444,468h12v12h-12zM456,468h12v12h-12zM468,468h12v12h-12z"/></svg>