<?xml version="1.0" encoding="UTF-8"?>
<svg id="Layer_1" data-name="Layer 1" xmlns="http://www.w3.org/2000/svg" width="720" height="720" xmlns:xlink="http://www.w3.org/1999/xlink" viewBox="0 0 720 720">
  <defs>
    <style>
      .cls-1 {
        fill: #fdbf51;
      }

      .cls-2 {
        fill: #2a4355;
      }

      .cls-3 {
        fill: url(#radial-gradient);
      }

      .cls-4 {
        fill: #fef4d7;
      }

      .cls-5 {
        fill: url(#linear-gradient);
      }

      .cls-6 {
        fill: #2a4456;
      }

      .cls-7 {
        fill: #fff;
      }

      .cls-8 {
        fill: #ffbe4e;
      }

      .cls-9 {
        fill: #ff98a2;
      }

      .cls-10 {
        fill: #93c7c7;
      }
    </style>
    <radialGradient id="radial-gradient" cx="-7620.344" cy="5795.136" fx="-7620.344" fy="5795.136" r="1.969" gradientTransform="translate(3025002.506 2144423.427) scale(396.921 -369.974)" gradientUnits="userSpaceOnUse">
      <stop offset="0" stop-color="#ffc054"/>
      <stop offset="1" stop-color="#fff"/>
    </radialGradient>
    <linearGradient id="linear-gradient" x1="393.822" y1="10428.978" x2="393.822" y2="10036.814" gradientTransform="translate(0 10486) scale(1 -1)" gradientUnits="userSpaceOnUse">
      <stop offset=".017" stop-color="#2a4456" stop-opacity="0"/>
      <stop offset=".083" stop-color="#2a4456" stop-opacity=".145"/>
      <stop offset=".475" stop-color="#2a4456"/>
    </linearGradient>
  </defs>
  <path class="cls-7" d="M718,601.673s-10.604,33.179-58.509,35.496c0,0,6.354-15.075-7.974-28.042-14.328-12.967-37.961-28.723-37.961-28.723l-11.816-21.663-10.669-27.029-9.025-34.022,15.591-14.031,32.15,26.421-.475-45.87,3.593-6.961,22.009,14.838,17.718,11.571,5.915,14.031,1.969,37.419,9.847,35.449,9.847,15.755,7.911,11.046,9.879,4.315Z"/>
  <g>
    <path class="cls-3" d="M328.059,616.081c152.555,0,276.224-108.526,276.224-242.397s-123.668-242.396-276.224-242.396S51.835,239.812,51.835,373.683s123.67,242.397,276.224,242.397Z"/>
    <g>
      <g>
        <path class="cls-7" d="M196.738,336.948c-2.143-3.34-4.205-13.618-5.008-22.197-.388,8.013-2.858,18.865-5.008,22.197-1.987,3.088-5.662,5.729-13.828,7.279,7.982,1.749,12.657,4.13,14.243,6.987,3.137,5.66,4.001,12.64,4.784,23.741.939-10.912,1.613-17.795,5.117-24.326,1.552-2.885,5.532-5.239,13.522-6.408-8.159-1.538-11.834-4.185-13.821-7.273Z"/>
        <path class="cls-7" d="M172.138,427.119c-1.306-2.026-2.559-8.279-3.042-13.49-.238,4.872-1.742,11.464-3.042,13.49-1.204,1.879-3.437,3.484-8.404,4.421,4.852,1.061,7.696,2.511,8.656,4.246,1.905,3.435,2.429,7.681,2.906,14.428.572-6.631.98-10.816,3.11-14.782.939-1.747,3.362-3.183,8.214-3.892-4.954-.937-7.186-2.542-8.397-4.421Z"/>
        <path class="cls-7" d="M144.164,396.404c3.567,0,6.458-2.889,6.458-6.456s-2.891-6.456-6.458-6.456-6.458,2.891-6.458,6.456,2.891,6.456,6.458,6.456Z"/>
        <path class="cls-7" d="M144.163,478.883c2.807,0,5.083-2.277,5.083-5.083s-2.276-5.081-5.083-5.081-5.083,2.275-5.083,5.081,2.276,5.083,5.083,5.083Z"/>
        <path class="cls-7" d="M196.445,405.834c2.605,0,4.716-2.111,4.716-4.715s-2.111-4.715-4.716-4.715-4.716,2.111-4.716,4.715,2.111,4.715,4.716,4.715Z"/>
      </g>
      <g>
        <path class="cls-7" d="M289.788,237.921c-1.585-2.463-3.102-10.048-3.695-16.381-.286,5.912-2.109,13.919-3.695,16.381-1.463,2.279-4.171,4.225-10.201,5.367,5.894,1.286,9.337,3.048,10.507,5.156,2.314,4.177,2.954,9.326,3.533,17.517.693-8.047,1.19-13.129,3.775-17.945,1.144-2.129,4.085-3.864,9.977-4.728-6.03-1.136-8.738-3.088-10.201-5.367Z"/>
        <path class="cls-7" d="M197.943,256.173c3.431,0,6.211-2.782,6.211-6.212s-2.781-6.211-6.211-6.211-6.214,2.781-6.214,6.211,2.782,6.212,6.214,6.212Z"/>
        <path class="cls-7" d="M220.684,223.75c2.342,0,4.24-1.897,4.24-4.238s-1.899-4.238-4.24-4.238-4.238,1.897-4.238,4.238,1.898,4.238,4.238,4.238Z"/>
        <path class="cls-7" d="M419.987,231.132c2.702,0,4.892-2.19,4.892-4.891s-2.19-4.891-4.892-4.891-4.894,2.19-4.894,4.891,2.192,4.891,4.894,4.891Z"/>
        <path class="cls-7" d="M427.146,253.213c1.975,0,3.578-1.602,3.578-3.578s-1.603-3.578-3.578-3.578-3.58,1.602-3.58,3.578,1.603,3.578,3.58,3.578Z"/>
        <path class="cls-7" d="M348.413,222.512c2.363,0,4.28-1.916,4.28-4.279s-1.916-4.279-4.28-4.279-4.281,1.916-4.281,4.279,1.916,4.279,4.281,4.279Z"/>
      </g>
      <g>
        <path class="cls-7" d="M446.906,401.923c-1.306-2.028-2.558-8.279-3.041-13.49-.238,4.87-1.743,11.462-3.043,13.49-1.203,1.877-3.437,3.482-8.403,4.421,4.851,1.062,7.696,2.511,8.656,4.244,1.904,3.437,2.428,7.681,2.905,14.43.573-6.633.981-10.816,3.11-14.782.939-1.749,3.362-3.185,8.214-3.892-4.961-.939-7.192-2.544-8.397-4.421Z"/>
        <path class="cls-7" d="M491.117,367.011c2.574,0,4.662-2.088,4.662-4.662s-2.088-4.66-4.662-4.66-4.662,2.088-4.662,4.66,2.088,4.662,4.662,4.662Z"/>
        <path class="cls-7" d="M477.147,382.731c2.499,0,4.526-2.025,4.526-4.524s-2.027-4.524-4.526-4.524-4.526,2.027-4.526,4.524,2.027,4.524,4.526,4.524Z"/>
      </g>
      <g>
        <path class="cls-7" d="M278.824,544.426c-2.422-3.767-4.748-15.381-5.654-25.074-.443,9.047-3.232,21.307-5.654,25.074-2.247,3.49-6.391,6.469-15.617,8.218,9.016,1.973,14.296,4.66,16.086,7.891,3.545,6.387,4.518,14.278,5.404,26.815,1.062-12.319,1.816-20.102,5.784-27.475,1.749-3.259,6.247-5.918,15.269-7.239-9.227-1.733-13.37-4.721-15.617-8.21Z"/>
        <path class="cls-7" d="M374.563,525.617c-1.306-2.027-2.558-8.279-3.041-13.49-.238,4.872-1.743,11.464-3.043,13.49-1.203,1.879-3.437,3.484-8.403,4.421,4.853,1.062,7.696,2.511,8.656,4.246,1.906,3.435,2.43,7.681,2.905,14.428.573-6.633.981-10.816,3.112-14.782.937-1.747,3.36-3.183,8.212-3.892-4.953-.937-7.186-2.542-8.398-4.421Z"/>
        <path class="cls-7" d="M338.239,576.067c3.972,0,7.192-3.22,7.192-7.19s-3.22-7.19-7.192-7.19-7.192,3.218-7.192,7.19,3.22,7.19,7.192,7.19Z"/>
        <path class="cls-7" d="M225.087,551.502c2.434,0,4.409-1.975,4.409-4.409s-1.975-4.408-4.409-4.408-4.409,1.973-4.409,4.408,1.973,4.409,4.409,4.409Z"/>
        <path class="cls-7" d="M393.25,551.433c2.397,0,4.341-1.944,4.341-4.341s-1.944-4.341-4.341-4.341-4.343,1.944-4.343,4.341,1.944,4.341,4.343,4.341Z"/>
        <path class="cls-7" d="M395.454,527.039c1.217,0,2.206-.987,2.206-2.204s-.989-2.204-2.206-2.204-2.204.987-2.204,2.204.987,2.204,2.204,2.204Z"/>
      </g>
    </g>
    <path class="cls-6" d="M180.29,174.172c-.912-4.388-2.109-8.728-3.355-13.027-.64-2.211-1.382-4.395-2.116-6.578-.694-2.082-1.96-5.245-3.443-7.456-1.443,8.075-4.784,18.089-6.118,21.402-1.279,3.177-2.729,6.286-4.294,9.333,0-.122.007-.238.007-.361,0-3.259-.252-6.483-.68-9.714-.885-6.728-2.429-13.327-4.532-19.776-4.137-12.68-10.228-24.653-17.461-35.837-1.994-3.082-4.049-6.116-6.186-9.095-2.157-3.014-5.301-5.694-8.595-8.476.647,1.49,2.708,7.422,3.198,8.871,1.007,2.959,1.926,5.966,2.674,9,1.477,5.966,2.368,12.041,2.491,18.191.075,3.823-.082,7.537-.517,11.231-.027-.088-.048-.184-.075-.272-1.055-3.653-2.273-7.265-3.648-10.816-2.749-7.116-6.301-13.919-10.445-20.327-1.157-1.789-2.354-3.544-3.709-5.204-.946-1.156-2.45-2.85-4.546-5.02.231,2.293.197,9.354.252,11.184.109,3.578.02,7.17-.306,10.735-.66,7.156-2.368,14.293-4.927,21.007-1.13,2.966-2.497,5.946-4.042,8.85-4.92-9.252-8.955-18.959-12.031-28.98-1.81-5.905-3.368-11.878-4.573-17.939-.599-3.02-1.17-6.048-1.667-9.088-.497-3.02-3.062-14.49-3.368-15.946-1.477,3.15-3.076,7.347-3.92,9.905-.871,2.653-1.715,5.313-2.545,7.98-1.62,5.225-3.137,10.483-4.552,15.762-2.566,9.565-4.627,19.306-6.369,29.061-.095-.15-.184-.306-.279-.456-1.946-3.061-4.117-5.959-6.308-8.85-4.41-5.823-8.942-11.68-11.915-18.401-.796-1.809-3.586-8.898-4.634-12.728-2.048,9.007-4.001,18.864-4.913,28.061-.912,9.17-1.252,18.381-.796,27.585.783,15.912,3.967,31.755,11.119,46.082,1.912,3.83,4.185,7.483,6.71,10.932.075.102.157.211.231.313-4.532-2.81-8.921-5.81-12.718-9.565-7.07-6.986-11.575-16.102-14.351-25.578-1.586-5.401-5.539-21.952-6.131-42.164-3.886,10.864-6.587,21.925-7.581,31.17-.932,8.674-1.218,17.449-.231,26.136.959,8.422,3.021,16.653,6.662,24.327,3.396,7.157,8.241,13.538,13.923,19.041,4.546,4.395,9.588,8.286,14.875,11.762-1.157,2.109-1.49,4.741-1.443,7.081.068,3.082.823,6.076,2.041,8.9,1.946,4.51,5.294,8.191,9.227,11.068.082,2.42.565,4.843,1.055,7.21.545,2.661,1.089,5.319,1.64,7.98,1.068,5.205,2.225,10.389,3.355,15.578,1.681,7.722,3.443,15.422,5.24,23.123-10.534-1.511-21.197-2.237-31.636-4.327-27.594-5.53-33.398-.15-31.786,2.777,1.13,2.054,39.604,19.544,49.574,23.251,8.213,3.055,33.718,13.939,61.319,13.933,14.304-.008,28.553-5.191,40.237-13.538,3.484-2.491,6.73-5.225,9.309-8.661,1.239-1.646,3.423-5.075,4.144-7.007-.32-5.747-.123-18.829-.306-27.741-.177-8.87-.327-17.756-.667-26.618-.095-2.491-.19-4.973-.286-7.464-.088-2.231-.109-4.524-.055-6.836,10.65-8.321,8.186-23.11,2.586-29.64,18.223-19.905,15.297-50.341,12.187-65.334ZM134.385,151.981c2.926-12.51,2.926-25.857-.524-38.272-.354-1.258-.742-2.51-1.15-3.748.327.544.653,1.082.973,1.626,3.321,5.619,6.526,11.327,9.404,17.184,5.764,11.714,10.309,23.871,12.514,36.776.592,3.483.946,7,1.225,10.524.143,1.83.231,3.667.259,5.503.014,1.123-.041,2.252,0,3.374-.463.796-.932,1.592-1.402,2.381-3.77,6.299-7.839,12.442-11.698,18.708.088-.306.184-.612.265-.925,2.382-8.605,3.804-17.517,4.587-26.402.218-2.476.218-4.952.184-7.435-.014-1.191-.415-3.49-1.096-7.463-.027.517-3.545,21.497-4.505,25.742-1.933,8.544-4.505,16.973-7.512,25.204-.81,2.218-1.674,4.415-2.579,6.599-.823-11.095-4.968-21.64-10.276-31.395-1.211-2.231-2.504-4.422-3.811-6.592.537-.592,1.014-1.293,1.49-1.925.946-1.258,1.844-2.551,2.708-3.871,1.674-2.551,3.205-5.204,4.573-7.932,2.797-5.606,4.94-11.565,6.369-17.66ZM103.109,156.491c7.492-13.191,11.051-28.769,9.629-43.905-.177-1.891-.449-3.769-.796-5.639.68,1.286,1.354,2.571,2.062,3.837,1.783,3.197,3.443,6.469,4.974,9.796,3.089,6.714,5.805,13.612,7.907,20.701.592,1.993,1.13,3.993,1.626,6.014.245,1.007.469,2.02.728,3.027.102.408.184.837.306,1.238-1.218,4.735-2.865,9.361-4.872,13.646-1.436,3.068-3.042,6.055-4.845,8.925-.891,1.415-1.824,2.796-2.804,4.15-.163.231-.333.456-.504.687-4.614-7.313-9.5-14.469-13.828-21.959.157-.15.3-.32.415-.517ZM60.851,182.342c.49-10.796,2.069-21.517,3.804-32.177,1.742-10.694,3.702-21.361,5.995-31.953,1.279-5.884,2.511-11.782,3.879-17.646.694-2.986,1.415-5.966,2.164-8.939.245-.986.497-1.966.735-2.952.014,1.102.089,2.204.163,3.306.211,3.068.517,6.129.905,9.184.783,6.136,2.123,12.238,3.688,18.211,3.137,11.952,7.778,23.585,13.508,34.531,5.975,11.415,13.535,21.864,20.074,32.946,6.247,10.572,11.412,21.864,13.093,34.123,1.783,13.041-1.531,26-5.226,38.414-.463,1.566-.905,3.129-1.361,4.701-.034.122-.055.238-.068.347-17.046-10.333-27.172-46.619-35.712-76.319,3.613,38.109,16.345,63.354,22.926,77.905-2.116.089-4.233.096-6.349.014-4.716-7.945-10.235-15.394-16.434-22.245-4.43-4.898-9.255-9.463-14.386-13.639-1.232-1.823-2.314-3.735-3.368-5.66-2.137-3.878-3.777-8.02-5.029-12.265-2.878-9.714-3.464-19.694-3.001-29.885ZM48.241,204.301c-3.348-6.633-5.907-13.517-7.812-20.755-4.28-16.299-4.478-33.123-3.648-49.973.245-5.02.626-10.027.844-15.048.102-2.293.143-4.592.245-6.891.163.966.367,1.925.64,2.857,1.048,3.64,2.722,7.102,4.648,10.354,3.749,6.347,8.608,11.925,12.664,18.068,1.123,1.707,2.157,3.463,3.205,5.218.238.401.483.823.742,1.238-1.66,9.925-3.144,19.932-3.756,29.973-.626,10.306-.184,20.728,2.559,30.728-4.634-9.592-12.378-34.272-14.134-43.647.014,2.122-.048,4.245.061,6.367.109,2.088.402,4.163.708,6.231.612,4.184,1.429,8.327,2.525,12.415,2.171,8.129,5.185,15.98,8.982,23.483,1.137,2.238,2.341,4.442,3.607,6.612-.3-.19-.606-.388-.905-.571-1.858-2.388-3.858-4.667-5.58-7.17-2.082-3.027-3.933-6.204-5.593-9.49ZM55.72,251.71c-6.628-3.735-13.059-7.932-18.761-12.803-5.682-4.857-10.718-10.354-14.59-16.667-4.171-6.796-6.805-14.388-8.329-22.191-1.592-8.136-1.878-16.476-1.463-24.742.225-4.435.701-8.837,1.164-13.252.238-2.279.544-4.544.851-6.81.082,1.49.191,2.973.313,4.456.497,6.007,1.293,12.007,2.668,17.884,2.368,10.136,6.594,19.925,13.276,27.98,6.961,8.381,16.624,13.483,25.723,19.157,8.683,5.408,16.679,11.612,24.11,18.64,7.186,6.796,13.617,14.355,19.217,22.496-7.343-.544-14.63-2.021-21.687-4.258-7.826-2.483-15.338-5.865-22.49-9.891ZM148.294,274.554c4.355.904,13.44-3.517,14.066-3.817-.157,1.463-.163,2.952-.163,4.396.007,2.204.014,4.408.02,6.611.014,4.469.088,8.931.157,13.394.143,8.878.347,17.75.538,26.62.109,5.028.252,10.081.714,15.088,0,.035.014.069.02.102-.17.368-.354.735-.558,1.095-.837,1.477-1.796,2.871-2.899,4.163-2.212,2.58-4.818,4.878-7.567,6.871-5.471,3.966-11.568,7.171-17.876,9.422-12.657,4.518-26.002,4.762-38.972,1.327-16.175-4.293-28.621-41.395-22.286-65.504,1.184-4.518,5.594-7.429,10.228-6.844,4.682.591,9.398.815,14.12.626,4.069-.163,8.057-.823,12.038-1.633,1.967-.402,7.363-2.239,11.276-4.831-13.127,2.864-57.393,2.054-60.346-13.809-.272-1.469.463-3.116,2.559-3.7,2.007-.565,6.961,1.109,10.105,1.973,25.689,7.096,41.496,3.659,46.811,2.639,5.56-1.075,21.34-7.387,21.762-7.606,6.254-3.257,12.283-7.36,17.407-12.252,1.184-1.054,2.307-2.184,3.382-3.279,1.354-1.381,2.633-2.823,3.858-4.313,9.295,19.932-10.793,28.769-18.394,33.259ZM167.531,233.553c-1.851,3.014-3.926,5.905-6.199,8.619-1.157,1.388-2.368,2.735-3.62,4.034-.783.809-1.592,1.585-2.368,2.388-2.402,1.918-4.906,3.721-7.506,5.367.055-.068.109-.129.157-.197,2.797-3.537,5.417-7.184,7.744-11.048,2.232-3.701,4.321-7.524,6.05-11.483,1.763-4.034,3.123-8.211,4.382-12.422.701-2.34,1.327-4.701,1.851-7.088.531-2.415.823-4.095.776-7.394-2.048,6.211-3.743,10.184-4.573,12.191-1.592,3.85-3.484,7.639-5.526,11.272-2.069,3.694-4.09,7.401-6.376,10.959-1.17,1.823-2.416,3.592-3.654,5.374-1.15,1.653-2.6,3.578-3.613,4.911-7.9,10.367-15.896,13.626-19.21,14.511,2.586-8,3.947-16.585,6.887-25.987,4.076-13.061,10.759-22.061,14.461-28.082,7.553-12.286,15.862-24.272,20.952-37.871,1.375-3.667,2.674-7.497,3.348-11.368.306-1.748.517-3.517.674-5.286.367,1.714.769,3.422,1.123,5.136.803,3.871,1.722,7.708,2.436,11.599,1.402,7.68,2.443,15.374,2.484,23.198.082,13.653-3.545,27.075-10.677,38.667Z"/>
    <path class="cls-10" d="M67.771,243.036c-10.629-5.918-22.762-9.415-32.017-17.32-11.099-9.476-16.522-24.075-18.958-38.456-1.409-8.32-1.967-16.782-1.674-25.218-.075-.776-.143-1.551-.211-2.333-.122-1.483-.231-2.973-.313-4.456-.306,2.265-.612,4.537-.851,6.81-.463,4.415-.939,8.816-1.164,13.252-.422,8.266-.129,16.606,1.463,24.742,1.524,7.803,4.165,15.395,8.329,22.191,3.872,6.313,8.908,11.803,14.59,16.667,5.702,4.871,12.133,9.075,18.761,12.803,7.152,4.027,14.665,7.409,22.49,9.898,4.716,1.497,9.541,2.647,14.413,3.409-6.594-9-15.12-16.566-24.858-21.988Z"/>
    <path class="cls-4" d="M80.68,243.363c-7.431-7.027-15.427-13.231-24.11-18.64-9.098-5.673-18.761-10.769-25.723-19.157-6.682-8.055-10.908-17.844-13.276-27.98-1.198-5.116-1.953-10.327-2.457-15.551-.293,8.435.265,16.898,1.674,25.218,2.443,14.381,7.867,28.98,18.958,38.456,9.255,7.905,21.388,11.395,32.017,17.32,9.738,5.422,18.271,12.986,24.851,21.973,2.416.382,4.845.674,7.275.851-5.594-8.136-12.024-15.694-19.21-22.49Z"/>
    <path class="cls-10" d="M38.51,114.498c-.272-.939-.476-1.891-.64-2.857-.102,2.299-.15,4.599-.245,6.891-.218,5.02-.599,10.027-.844,15.048-.83,16.85-.626,33.674,3.648,49.973,1.899,7.238,4.457,14.123,7.812,20.755,1.66,3.286,3.511,6.469,5.593,9.497,1.722,2.504,3.722,4.776,5.58,7.17.306.19.606.381.905.572-1.266-2.163-2.477-4.368-3.607-6.612-3.797-7.51-6.812-15.354-8.982-23.483-1.089-4.088-1.912-8.231-2.525-12.415-.299-2.068-.599-4.143-.708-6.231-.109-2.116-.047-4.245-.061-6.367,1.756,9.374,9.506,34.055,14.134,43.647-2.742-9.993-3.185-20.415-2.559-30.728.313-5.15.857-10.3,1.538-15.429-7.41-15.857-15.413-31.667-18.802-48.667-.082-.252-.163-.503-.238-.762Z"/>
    <path class="cls-4" d="M59.028,148.144c-1.048-1.755-2.082-3.51-3.205-5.218-4.056-6.143-8.914-11.721-12.664-18.068-1.79-3.027-3.355-6.231-4.41-9.592,3.389,17,11.391,32.81,18.802,48.667.646-4.864,1.409-9.714,2.218-14.544-.259-.422-.504-.843-.742-1.245Z"/>
    <path class="cls-4" d="M67.288,152.015c.68-10.422,1.619-20.83,2.817-31.211-2.062,9.735-3.852,19.538-5.451,29.361-1.735,10.653-3.314,21.374-3.804,32.177-.463,10.19.122,20.17,2.994,29.885,1.252,4.245,2.892,8.388,5.029,12.265,1.062,1.932,2.137,3.837,3.368,5.66,5.131,4.177,9.956,8.748,14.386,13.64.415.463.823.932,1.238,1.401-5.267-7.816-10.105-15.891-13.596-24.626-8.601-21.504-8.492-45.429-6.982-68.552Z"/>
    <path class="cls-10" d="M121.843,219.819c-5.131-14.531-14.107-27.333-21.436-40.891-10.874-20.123-18.203-42.415-19.619-65.198-.953-4.15-1.762-8.347-2.293-12.558-.388-3.055-.694-6.116-.905-9.184-.075-1.109-.15-2.204-.163-3.306-.231.986-.483,1.966-.735,2.952-.749,2.973-1.463,5.953-2.164,8.939-1.368,5.864-2.606,11.762-3.879,17.646-.184.864-.361,1.728-.538,2.592-1.198,10.381-2.137,20.789-2.817,31.211-1.511,23.123-1.619,47.041,6.989,68.558,3.491,8.728,8.329,16.81,13.596,24.626,5.696,6.463,10.799,13.434,15.195,20.843,2.116.083,4.233.069,6.349-.014-6.587-14.551-19.312-39.796-22.926-77.905,8.533,29.701,18.666,65.986,35.712,76.319.007-.108.027-.225.068-.347.449-1.564.898-3.135,1.361-4.701,1.075-3.626,2.116-7.292,3.015-10.999.041-9.714-1.579-19.436-4.811-28.585Z"/>
    <path class="cls-4" d="M128.852,220.982c-1.681-12.259-6.846-23.551-13.093-34.123-6.546-11.075-14.1-21.531-20.074-32.946-5.73-10.946-10.371-22.578-13.508-34.531-.49-1.878-.959-3.762-1.395-5.66,1.415,22.776,8.744,45.075,19.619,65.198,7.329,13.558,16.304,26.361,21.435,40.892,3.232,9.157,4.859,18.871,4.797,28.578,2.184-8.98,3.484-18.177,2.219-27.408Z"/>
    <path class="cls-4" d="M112.67,108.307c-.238-.456-.483-.905-.721-1.36.347,1.864.619,3.741.796,5.639,1.415,15.136-2.143,30.715-9.629,43.905-.116.197-.259.367-.422.524,2.089,3.612,4.301,7.143,6.56,10.653,7.975-18.579,9.2-39.987,3.416-59.361Z"/>
    <path class="cls-10" d="M114.011,110.784c-.456-.816-.898-1.646-1.341-2.476,5.784,19.374,4.559,40.776-3.423,59.354,2.423,3.769,4.879,7.517,7.274,11.299.17-.231.34-.456.504-.687.98-1.354,1.912-2.742,2.804-4.15,1.803-2.871,3.409-5.857,4.845-8.925.898-1.918,1.722-3.905,2.47-5.939-1.47-13.524-4.382-26.885-8.676-39.796-1.395-2.939-2.872-5.837-4.457-8.68Z"/>
    <path class="cls-4" d="M129.241,150.315c-.252-1.007-.483-2.02-.728-3.027-.49-2.014-1.035-4.021-1.627-6.014-2.096-7.095-4.818-13.986-7.907-20.701-.17-.367-.347-.735-.524-1.109,4.294,12.905,7.206,26.272,8.676,39.796.926-2.51,1.735-5.089,2.409-7.708-.116-.401-.197-.823-.299-1.238Z"/>
    <path class="cls-4" d="M134.364,115.648c2.933,11.857,2.797,24.476.02,36.334-1.429,6.095-3.573,12.054-6.383,17.653-1.368,2.728-2.899,5.381-4.573,7.932-.864,1.313-1.762,2.612-2.708,3.871-.476.633-.953,1.333-1.49,1.925,1.313,2.17,2.599,4.361,3.811,6.592.701,1.293,1.382,2.599,2.041,3.918,7.642-13.163,14.263-27.286,15.297-42.422.83-12.17-2.014-24.211-6.016-35.803Z"/>
    <path class="cls-10" d="M157.072,181.573c-.027-1.837-.116-3.674-.259-5.503-.272-3.524-.626-7.041-1.225-10.524-2.198-12.912-6.75-25.062-12.514-36.776-2.878-5.857-6.084-11.565-9.404-17.184-.32-.544-.646-1.088-.973-1.626.415,1.238.803,2.49,1.15,3.748.177.639.34,1.293.504,1.939,4.008,11.599,6.846,23.64,6.016,35.81-1.034,15.136-7.656,29.252-15.297,42.422,4.307,8.64,7.519,17.85,8.234,27.476.905-2.177,1.769-4.381,2.579-6.599,3.008-8.225,5.58-16.653,7.513-25.204.959-4.245,4.478-25.225,4.505-25.742.68,3.973,1.075,6.272,1.096,7.463.034,2.483.034,4.966-.184,7.435-.782,8.891-2.205,17.796-4.587,26.402-.088.306-.177.612-.265.925,3.858-6.265,7.928-12.408,11.698-18.708.476-.789.939-1.585,1.402-2.381-.027-1.123.034-2.245.014-3.374Z"/>
    <path class="cls-4" d="M136.085,243.751c5.015-13.218,14.474-24.211,21.306-36.592,8.295-15.034,12.609-31.919,15.508-48.857-.245-1.116-.497-2.225-.735-3.34-.15,1.769-.367,3.537-.674,5.286-.674,3.864-1.973,7.701-3.348,11.367-5.097,13.592-13.399,25.585-20.952,37.871-3.702,6.02-10.384,15.02-14.461,28.082-2.933,9.402-4.301,17.994-6.886,25.986,1.17-.311,2.933-.924,5.063-2.04.531-1.999,1.068-4,1.599-6.001,1.062-3.958,2.123-7.931,3.579-11.761Z"/>
    <path class="cls-10" d="M175.724,171.702c-.708-3.891-1.633-7.728-2.436-11.599-.123-.599-.259-1.197-.395-1.803-2.899,16.939-7.213,33.823-15.508,48.858-6.832,12.374-16.291,23.374-21.306,36.592-1.456,3.837-2.518,7.803-3.572,11.769-.531,1.999-1.068,4-1.599,6.001,3.899-2.042,9.037-5.77,14.14-12.47,1.014-1.333,2.463-3.259,3.613-4.912,1.238-1.775,2.477-3.551,3.654-5.374,2.293-3.558,4.307-7.272,6.376-10.959,2.035-3.639,3.933-7.422,5.526-11.272.83-2.007,2.525-5.98,4.573-12.191.048,3.293-.245,4.98-.776,7.395-.524,2.388-1.15,4.748-1.851,7.088-1.259,4.211-2.62,8.381-4.383,12.422-1.728,3.966-3.817,7.782-6.049,11.483-2.327,3.864-4.947,7.51-7.744,11.048-.054.068-.109.129-.157.198,2.6-1.647,5.097-3.449,7.506-5.368.783-.803,1.586-1.578,2.368-2.388,1.252-1.299,2.463-2.646,3.62-4.034,2.273-2.714,4.348-5.605,6.199-8.619,7.132-11.599,10.759-25.014,10.677-38.66-.034-7.83-1.075-15.524-2.477-23.204Z"/>
    <path class="cls-4" d="M169.096,250.846c-13.855,8.368-27.029,17.857-39.326,28.375,1.613.563,3.389.047,5.015-.463,4.566-1.436,9.132-2.879,13.698-4.313,6.363-3.722,20.789-10.369,20.612-23.599Z"/>
    <path class="cls-4" d="M132.37,326.54c-2.756,11.007-3.702,22.374-3.525,33.736,1.98-.496,3.954-1.081,5.907-1.776,6.308-2.251,12.405-5.455,17.876-9.422,2.749-1.993,5.356-4.293,7.567-6.871,1.102-1.286,2.062-2.686,2.899-4.163.204-.36.381-.727.558-1.095-.007-.033-.014-.067-.02-.102-.463-5.012-.606-10.06-.714-15.088-.191-8.87-.395-17.748-.538-26.62-.075-4.463-.143-8.931-.157-13.394v-.857c-3.008,1.394-5.771,3.632-8.145,5.973-10.888,10.708-17.999,24.87-21.708,39.679Z"/>
    <path class="cls-9" d="M162.36,270.737c-.626.299-9.71,4.721-14.066,3.817.061-.033.129-.075.19-.108-4.566,1.436-9.132,2.877-13.698,4.313-1.633.516-3.403,1.026-5.015.463,12.303-10.519,25.471-20.007,39.326-28.375-.041-2.864-.755-6.041-2.402-9.565-1.225,1.49-2.511,2.932-3.858,4.313-1.075,1.095-2.198,2.225-3.382,3.279-5.124,4.898-11.146,8.994-17.407,12.251-.415.219-16.202,6.531-21.762,7.606-5.315,1.028-21.122,4.463-46.811-2.639-3.144-.87-8.098-2.539-10.105-1.973-2.096.593-2.838,2.231-2.559,3.701,2.953,15.865,47.219,16.675,60.346,13.809-3.913,2.592-9.309,4.429-11.276,4.831-3.981.809-7.969,1.469-12.038,1.633-4.722.191-9.445-.033-14.12-.626-4.634-.585-9.037,2.326-10.228,6.844-6.335,24.109,6.111,61.211,22.286,65.504,10.97,2.911,22.204,3.171,33.065.455-.177-11.359.769-22.727,3.525-33.734,3.709-14.81,10.82-28.974,21.701-39.687,2.382-2.342,5.138-4.579,8.146-5.973-.007-1.918-.014-3.836-.02-5.755,0-1.43.007-2.919.163-4.382Z"/>
    <path class="cls-8" d="M359.361,266.779c-1.014-2.674-1.993-5.361-2.891-8.082-.66-1.999-1.444-4.067-1.912-6.17-1.15.068-35.209.578-37.359.292-.612,2.919-4.457,12.884-5.457,14.98,9.526-.28,19.054-.53,28.58-.721,6.343-.13,12.691-.232,19.04-.299ZM319.845,261.119c5.288-2.129,11.419-2.714,17.313-2.81,4.191-.067,10.172.872,14.8,3.015-3.287,1.796-10.603,2.564-14.8,2.564-5.887,0-15.032-.729-17.313-2.769Z"/>
    <path class="cls-8" d="M298.912,276.33c-14.038.563-27.585,2.027-41.617.973-1.186,6.958-10.385,38.443-12.89,47.333-17.031,60.476-36.44,119.076-59.216,177.642,1.252-.116,218.213-6.469,221.996-6.525.014-.339,1.954-54.783,2.661-67.531.463-8.285,1.048-16.572,1.702-24.844.605-14.081,1.455-28.151,2.586-42.19,1.239-15.389,2.891-30.756,4.858-46.062.932-7.293,4.301-36.871,4.75-40.483-6.546-.089-32.467-.006-39.679.014-14.195.041-28.391.136-42.592.435-14.182.293-28.377.674-42.559,1.239Z"/>
    <path class="cls-6" d="M337.156,258.302c-5.892.095-12.031.679-17.311,2.81,2.281,2.046,11.426,2.767,17.311,2.767,4.199,0,11.515-.768,14.802-2.564-4.628-2.135-10.609-3.082-14.802-3.013Z"/>
    <path class="cls-6" d="M365.492,266.718c-3.116-6.558-5.286-12.748-6.131-20.477.047-.238-16.202-.218-20.728-.088-4.75.129-19.401.843-23.741,1.027-1.593,3.898-6.241,15.966-7.779,20.763-3.348.1-6.696.189-10.044.305-7.206.244-14.412.571-21.618.904-6.16.286-21.742.784-22.063.898-.632,2.095-22.713,77.703-27.688,93.198-9.827,30.565-47.478,136.391-50.398,146.696.157.116,64.552-.892,94.52-1.857,30.378-.981,60.768-1.314,91.152-1.654,17.278-.197,49.158-.299,55.175-.591.217-7.001,1.436-133.07,15.651-238.955-5.887-.36-60.277-.217-66.308-.169ZM317.198,252.819c2.143.286,36.201-.225,37.359-.293.469,2.103,1.251,4.171,1.912,6.17.898,2.722,1.877,5.408,2.891,8.082-6.349.075-12.699.169-19.04.299-9.526.197-19.054.449-28.58.721,1-2.095,4.851-12.068,5.457-14.98ZM423.748,274.629c-.449,3.612-3.811,33.198-4.748,40.483-1.967,15.314-3.622,30.681-4.86,46.062-1.128,14.042-1.987,28.109-2.586,42.19-.652,8.279-1.245,16.559-1.7,24.844-.709,12.748-2.641,67.192-2.661,67.531-3.785.055-220.752,6.408-221.997,6.525,22.777-58.566,42.177-117.157,59.216-177.642,2.503-8.89,11.704-40.375,12.888-47.332,14.032,1.062,27.581-.41,41.619-.973,14.188-.565,28.377-.953,42.57-1.253,14.195-.299,28.391-.394,42.592-.435,7.2-.006,33.119-.089,39.666,0Z"/>
    <path class="cls-7" d="M414.943,282.451c-10.166,63.491-16.053,166.757-16.46,204.636-62.585.823-122.658,3.393-197.322,5.993,22.15-69.715,61.122-208.581,61.122-208.581,57.562-1.231,111.109-.993,152.66-2.048Z"/>
    <path class="cls-8" d="M355.899,405.277c-7.594-.11-14.883-1.394-22.41-2.403-7.308-.979-14.609-1.123-21.945-.469-7.064.626-14.107,1.511-21.183,2.054-6.915.532-20.415,1.367-25.988,2.639,5.627,4.545,18.264,5.191,24.877,5.075,7.444-.122,14.869-1.272,22.294-1.877,7.356-.607,14.597-.782,21.945.033,7.513.831,15.556,1.879,22.967-.291,2.342-.687,1.818-4.729-.557-4.762Z"/>
    <path class="cls-8" d="M328.672,373.8c-20.423-.238-41.511-.674-61.081,6.054,9.166,3.171,41.271,1.932,61.735,2.137,21.027.203,41.107-1.245,62.121-1.68-7.131-5.13-41.517-6.267-62.775-6.511Z"/>
    <path class="cls-8" d="M388.711,352.262c-2.667-3.049-8.384-3.919-12.153-4.709-4.484-.932-9.03-1.53-13.597-1.932-9.853-.876-19.739-.998-29.614-.394-9.806.599-19.597,1.796-29.391,2.619-10.008.837-24.946.884-30.786,4.28,9.467,1.713,18.66,2.986,28.336,2.686,10.018-.305,20.035-1.381,30.004-2.286,9.684-.876,19.32-2.135,29.056-2.06,4.961.041,21.157,1.652,28.145,1.796Z"/>
    <path class="cls-8" d="M383.86,321.949c-4.709-.762-9.426-1.361-14.176-1.729-9.983-.768-19.952-.945-29.955-.666-10.03.278-20.06.687-30.071,1.258-4.784.272-9.575.496-14.365.618-2.607.069-5.213.108-7.819.158-2.737.047-5.124.652-7.807.876,2.334,3.055,11.277,3.62,13.672,3.803,4.994.374,10.003.607,15.011.748,9.814.272,19.619-.136,29.419-.449,9.764-.313,19.55-.741,29.322-.701,4.742.022,9.506.13,14.243.36,2.586.124,5.158.354,7.73.573,2.225.189,4.518.672,6.655-.049-3.313-3.462-7.996-4.177-11.86-4.801Z"/>
    <path class="cls-8" d="M267.733,319.826c-1.367-.435-2.797.13-3.523,1.286-.471.408-.837.937-1.028,1.605-.593,2.082,1.081,4.033,3.198,4.033,1.702,0,3.326-1.184,3.714-2.864.402-1.735-.666-3.523-2.361-4.061Z"/>
    <path class="cls-8" d="M261.643,346.921c-.829-.23-1.66-.142-2.367.183-.784.213-1.491.681-1.94,1.436-1.069,1.81-.382,4.368,1.552,5.272,1.824.859,4.157.061,5.097-1.727,1.067-2.048-.158-4.551-2.342-5.164Z"/>
    <path class="cls-8" d="M250.075,406.555c-.258-1.075-1.02-1.816-1.952-2.19-.437-.299-.961-.496-1.546-.557-2.048-.191-4.15,1.509-4.246,3.59-.102,2.239,2.007,4.11,4.199,3.966,2.348-.142,4.09-2.509,3.545-4.809Z"/>
    <path class="cls-7" d="M407.668,306.805c-3.082.532-6.062,2.769-8.722,4.274-4.764,2.686-9.678,5.89-14.963,7.503-.327,1.245-.872,2.42-1.253,3.679-.211.681-.374,1.369-.518,2.062,5.138,3.06,13.378,1.15,17.012-3.415,1.41,3.047,4.914,8.293,7.948,9,3.708.87,8.833-3.545,9.78-6.408,1.544,2.932,9.24,6.749,13.991,8.149,3.313.981,9.498,1.763,12.935-.516-9.26-6.095-18.311-12.437-26.62-19.81-2.688-2.375-5.682-5.191-9.589-4.518Z"/>
    <path class="cls-2" d="M414.461,302.452c-5.18-2.497-9.991-.865-14.739,1.769-5.839,3.238-12.535,6.434-17.524,11.021-.427.039-.843.183-1.17.455-1.593,1.319-2.281,3.523-2.913,5.436-.687,2.068-1.17,4.197-1.306,6.375-.083,1.251.837,2.013,1.885,2.204.067.047.114.102.183.142,6.253,3.892,13.508,3.313,18.755-.973,2.409,4.008,5.751,7.442,10.908,7.198,4.171-.197,7.151-2.714,9.118-6.001,3.994,3.844,8.982,6.469,14.617,7.32,6.083.918,15.869-.932,19.306-6.816-6.18-2.109-14.979-10.641-20.974-15.239-5.274-4.053-10.125-9.985-16.147-12.89ZM430.929,331.649c-4.756-1.4-12.447-5.217-13.991-8.149-.947,2.863-6.072,7.279-9.78,6.408-3.027-.707-6.532-5.959-7.947-9-3.636,4.565-11.875,6.475-17.014,3.415.15-.687.313-1.375.518-2.062.388-1.258.926-2.434,1.253-3.679,5.286-1.613,10.2-4.817,14.963-7.503,2.661-1.505,5.64-3.742,8.724-4.274,3.905-.674,6.899,2.143,9.573,4.518,8.309,7.373,17.36,13.715,26.62,19.81-3.423,2.279-9.607,1.497-12.921.516Z"/>
    <path class="cls-7" d="M346.969,295.227c2.483,1.904,4.077,5.272,5.737,7.836,2.966,4.601,5.831,9.715,9.764,13.601-.286,1.251-.354,2.55-.599,3.842-.13.701-.307,1.388-.496,2.062-5.975.327-12.38-5.197-13.475-10.926-2.661,2.042-8.206,5.061-11.222,4.28-3.687-.953-6.172-7.238-5.674-10.217-2.73,1.877-11.318,1.68-16.177.713-3.387-.674-9.227-2.85-11.214-6.469,11.031-1.095,21.994-2.503,32.779-5.176,3.47-.851,7.431-1.954,10.576.455Z"/>
    <path class="cls-2" d="M322.689,292.125c-7.45,1.286-19.204,4.756-25.653,3.748.305,6.81,8.11,12.994,13.922,15.007,5.382,1.865,11.025,1.857,16.346.307.211,3.817,1.68,7.434,5.288,9.552,4.457,2.619,9.016,1.123,13.01-1.308,2.655,6.239,8.813,10.123,16.155,9.579.083-.006.15-.028.232-.041,1.02.313,2.184.069,2.694-1.075.892-1.993,1.449-4.1,1.804-6.251.325-1.987.741-4.258-.055-6.17-.163-.388-.463-.707-.823-.945-2.286-6.375-6.729-12.326-10.398-17.898-2.98-4.537-6.477-8.218-12.228-8.415-6.682-.225-13.739,2.775-20.293,3.911ZM303.615,299.955c11.031-1.095,21.994-2.503,32.779-5.178,3.47-.863,7.431-1.965,10.582.449,2.483,1.904,4.077,5.272,5.737,7.836,2.968,4.601,5.831,9.715,9.764,13.601-.286,1.251-.353,2.55-.599,3.842-.128.701-.305,1.388-.496,2.062-5.975.327-12.378-5.197-13.473-10.926-2.661,2.042-8.206,5.061-11.222,4.28-3.689-.953-6.172-7.238-5.676-10.217-2.73,1.877-11.316,1.68-16.175.713-3.395-.674-9.242-2.85-11.222-6.462Z"/>
    <path class="cls-1" d="M357.096,406.726c1.231,0,2.489-3.947,2.988-6.408-.9-.083-3.838-.79-4.22-1.042.089.709-.006,7.45,1.233,7.45Z"/>
    <path class="cls-1" d="M394.154,239.52c-3.307,2.082-10.058,1.136-12.397-1.891-4.071,10.497-12.644,53.279-15.013,64.436-2.367,11.157-10.751,55.994-12.283,67.531,3.259,3.437,8.459,5.158,13.414,4.49.441-2.353.904-4.687,1.3-6.993,1.062-6.231,2.326-12.415,3.551-18.619,2.436-12.388,4.886-24.783,7.336-37.17,2.444-12.388,4.88-24.775,7.391-37.157,1.251-6.184,2.564-12.346,4.049-18.483.951-4,2.653-15.327,2.653-16.143Z"/>
    <path class="cls-1" d="M357.34,377.486c-1.109-.652-2.395-1.597-3.389-2.734-.006,1.428,0,14.449,1.341,19.96,1.008.624,6.078,1.489,6.989,1.694,1.639-4.075,4.144-9.945,5.995-17.279-3.301.551-7.976.095-10.936-1.64Z"/>
    <path class="cls-1" d="M397.475,237.969c1.272,1.735,2.322,9.884-1.463,26.809-.857,3.83-2.19,11.763-6.137,18.898,3.947,1.383,6.798-6.367,7.921-9.81,1.286-3.953,2.245-7.958,2.932-12.061,1.089-6.511,4.457-20.449-3.253-23.837Z"/>
    <path class="cls-2" d="M394.855,232.615c2.186-11.368,4.961-25.959-1.034-27.041-4.396-.789-6.58,3.878-7.45,7.027-.926,3.361-3.819,14.47-4.573,18.694-4.029.782-5.934,10.857-8.949,23.368-4.293,17.837-8.417,40.369-9.8,47.063-2.353,11.379-4.423,22.843-6.397,34.291-.965,5.621-6.607,35.144-6.599,38.212.006,3.931,1.591,22.877,2.074,26.266.524,3.72,1.477,10.647,4.526,10.938,4.478.429,15.515-27.81,16.571-35.191.892-6.245,2.653-21.768,3.886-27.96,2.416-12.163,4.825-24.332,7.234-36.497,1.544-7.781,3.082-15.558,4.606-23.347,5.036.939,8.275-3.019,10.133-7.304,2.688-6.211,4.281-12.913,5.471-19.558,1.048-5.851,2.708-12.858,1.408-18.77-1.073-4.837-5.599-8.878-11.105-10.19ZM393.101,209.2c1.755.388.388,13.116-1.967,26.3-1.871,1.075-5.43-.381-6.499-1.483.681-2.918,4.669-25.667,8.466-24.816ZM357.096,406.726c-1.233,0-1.136-6.749-1.233-7.45.382.252,3.314.959,4.22,1.042-.498,2.462-1.757,6.408-2.988,6.408ZM362.287,396.406c-.918-.211-5.981-1.069-6.987-1.694-1.341-5.51-1.355-18.532-1.341-19.96.993,1.136,2.273,2.088,3.389,2.734,2.96,1.735,7.635,2.192,10.942,1.64-1.851,7.334-4.356,13.211-6.003,17.279ZM387.446,274.152c-2.511,12.376-4.941,24.769-7.391,37.159-2.442,12.388-4.892,24.775-7.336,37.17-1.217,6.196-2.489,12.387-3.551,18.619-.388,2.298-.859,4.64-1.3,6.993-4.955.674-10.146-1.056-13.414-4.49,1.524-11.537,9.908-56.374,12.283-67.531,2.367-11.157,10.942-53.94,15.011-64.437,2.336,3.027,9.093,3.973,12.399,1.891,0,.816-1.702,12.143-2.667,16.15-1.471,6.123-2.785,12.293-4.035,18.475ZM400.722,261.806c-.687,4.094-1.646,8.108-2.932,12.061-1.125,3.45-3.974,11.192-7.921,9.81,3.947-7.129,5.286-15.068,6.137-18.896,3.783-16.926,2.736-25.076,1.463-26.811,7.718,3.388,4.348,17.326,3.253,23.837Z"/>
    <path class="cls-7" d="M386.342,244.078c-3.143.007-9.002,23.823-16.793,63.558-8.384,42.769-10.521,60.015-7.588,60.401,3.218.429,5.79-15.468,14.237-61.987,6.103-33.592,13.677-61.979,10.144-61.973Z"/>
    <path class="cls-7" d="M391.072,219.969c-.061-.15-.136-.306-.272-.388-.416-.259-.851.313-1.006.776-1.668,4.775-2.846,9.714-3.525,14.728,1.054.49,2.375.85,3.504.782.416-4.435,1.396-8.816,1.579-13.272.047-.891.047-1.803-.28-2.626Z"/>
    <path class="cls-1" d="M393.101,209.2c-3.797-.843-7.793,21.898-8.472,24.817.339.347.932.735,1.639,1.061.681-5.007,1.859-9.953,3.525-14.728.163-.463.593-1.027,1.008-.776.136.082.211.238.272.388.319.823.319,1.742.286,2.626-.183,4.449-1.164,8.837-1.579,13.272.498-.027.967-.136,1.355-.361,2.355-13.191,3.722-25.912,1.967-26.3Z"/>
    <path class="cls-4" d="M541.725,378.473c-55.616,7.312-68.695,31.837-68.695,43.163,0,14.879,21.374,39.014,87.233,31.946,52.091-5.591,66.103-30.965,63.468-46.456-1.898-11.196-25.837-36.048-82.006-28.653Z"/>
    <path class="cls-7" d="M479.224,640.454c-.9-2.06-2.458-5.319-2.982-7.523,1.782-4.449,5.077-9.979,6.219-11.83,2.239-3.612,4.376-7.293,6.452-11.007,3.742-6.7,7.206-13.571,10.343-20.578,3.001-6.722,5.818-13.707,7.308-21.021,1.416-6.938,1.402-14.156-1.231-20.878-1.247-3.177-3.248-6.204-5.335-8.951-1.014-1.341-4.09-5.008-7.261-8.273-.225-1.245-.49-2.489-.66-3.742-1.375-10.156-2.968-20.36-6.186-30.122-1.579-4.79-3.314-9.089-5.798-13.49-2.3-4.067-5.077-8.579-9.051-11.19-1.891-1.239-3.83-1.891-6.062-1.769-1.77.095-6.111.341-7.616,3.47-.892,1.849,8.86,33.883,11.153,45.148,1.117,5.497,1.776,11.137,1.511,16.75-.414,8.85-3.598,14.325-4.402,15.367-1.17-6.627-6.615-7.626-5.016-16.592.51-2.877,5.546-9.307,2.43-21.334-1.505-5.796-4.118-14.408-4.975-17.258-1.837,3.047-7.275,9.244-8.949,11.035-3.326,3.551-6.798,6.966-9.894,10.721-.203.244-.402.488-.599.74-.102.122-.197.252-.291.374-.008.008-.049.061-.083.108-.055.075-.142.185-.163.211-.067.096-.142.191-.211.288-.191.25-.374.502-.557.76-.687.953-1.341,1.932-1.946,2.932-.607,1-1.164,2.028-1.674,3.076-.138.278-.266.563-.396.849-.047.102-.089.205-.136.313-.006.014-.006.022-.014.033-.217.546-.429,1.097-.618,1.654-1.967,5.762-1.723,11.747-.939,17.837.79,6.17,2.028,12.87,2.98,19.237,1.008,6.735,1.865,13.49,2.472,20.273,1.142,12.775,1.237,25.586-.668,38.293-.884,5.926-2.355,11.803-4.437,17.429-1.292,3.496-7.541,12.128-9.636,15.176,19.83,4.496,52.057,7.362,72.295,5.355-1.707-2.239-10.022-11.503-11.43-13.939-1.471-2.558-2.763-5.225-3.947-7.933Z"/>
    <path class="cls-6" d="M718,601.673c-2.45-2.267-4.606-4.374-6.511-6.328-.859.796-1.729,1.579-2.607,2.353,2.913,1.566,6.07,2.96,9.118,3.974Z"/>
    <path class="cls-6" d="M659.934,632.776c.014,1.489-.116,2.938-.443,4.394,1.946-3.246,2.58-6.722,2.348-10.211-.843.341-1.694.668-2.544.993.38,1.585.626,3.212.64,4.825Z"/>
    <path class="cls-6" d="M424.164,652.911c-.571,1.375-1.197,2.728-1.857,4.061,1.967-1.585,3.531-3.354,4.831-5.244-.754-.169-1.511-.347-2.265-.53-.225.571-.463,1.142-.709,1.713Z"/>
    <path class="cls-6" d="M696.407,574.828c-2.361-4.665-4.224-9.502-5.756-14.516-1.741-5.701-3.171-11.45-4.287-17.299-2.85-14.932-3.947-33.367-4.667-40.258-.674-6.43-2.09-13.049-5.867-18.424-2.176-3.094-4.925-5.672-7.974-7.87,1.128-10.394,1.857-21.136-1.654-31.17-3.212-9.177-9.745-17.26-19.442-19.838-.313-.081-.626-.156-.945-.23-2.777-.626-5.79-.823-8.614-.266-.382.075-.762.163-1.136.266-1.062.291-2.09.699-3.057,1.245-.028-.421-.067-.831-.102-1.245-2.722-34.204-23.123-49.92-65.538-52.654-13.534-.87-27.227.469-40.489,3.326-12.624,2.722-25.464,6.7-36.44,13.605-16.85,10.605-22.973,20.001-24.627,35.723-.837,7.939-.538,17.482.102,29.626.108,2.074.225,4.216.353,6.442,0,0,.089,3.98.219,4.579-1.613-.116-10.97-.069-12.943,6.42-.721,2.375,1.871,11.879,2.395,14.491.28,1.375.585,2.749.912,4.116-3.082,3.251-5.961,6.694-9.085,9.932-3.387,3.517-6.926,6.891-10.186,10.538-3.232,3.612-6.288,7.503-8.417,11.883-2.621,5.408-3.636,11.239-3.417,17.224.244,6.655,1.572,13.266,2.586,19.83,1.006,6.519,1.987,13.055,2.769,19.477,1.552,12.781,2.348,25.734,1.266,38.592-.496,5.938-1.381,11.653-2.661,17.537-.632,2.911-1.327,5.857-2.279,8.687-.756,2.245-1.648,4.429-2.552,6.611.754.185,1.511.355,2.265.532,2.097-3.055,3.506-6.436,4.797-9.926,2.084-5.619,3.553-11.495,4.437-17.429,1.906-12.707,1.81-25.516.668-38.293-.607-6.781-1.463-13.536-2.47-20.271-.953-6.367-2.192-13.069-2.982-19.239-.776-6.087-1.02-12.074.939-17.837.191-.557.402-1.109.618-1.652.008-.014.008-.022.014-.033.049-.102.089-.213.136-.313.13-.286.26-.565.396-.851.504-1.056,1.067-2.082,1.674-3.074.605-1.008,1.258-1.981,1.946-2.932.183-.258.368-.51.557-.762.069-.095.144-.191.213-.286.02-.028.1-.136.161-.211.035-.047.075-.102.083-.11.102-.122.197-.25.293-.372.197-.252.4-.498.599-.742,3.088-3.756,6.566-7.176,9.894-10.721,1.674-1.788,7.11-7.986,8.947-11.035.859,2.852,3.472,11.464,4.975,17.26,3.123,12.027-1.912,18.463-2.428,21.333-1.599,8.967,3.85,9.959,5.014,16.592.803-1.034,3.982-6.511,4.404-15.367.266-5.613-.396-11.251-1.511-16.748-2.286-11.267-12.039-43.301-11.155-45.15,1.513-3.129,5.853-3.374,7.616-3.47,2.231-.122,4.171.532,6.064,1.769,3.974,2.606,6.749,7.115,9.049,11.192,2.483,4.4,4.22,8.699,5.798,13.488,3.212,9.762,4.811,19.966,6.186,30.124.169,1.251.429,2.495.66,3.74,3.179,3.259,6.247,6.932,7.261,8.273,2.09,2.747,4.09,5.776,5.335,8.953,2.633,6.72,2.655,13.932,1.231,20.878-1.489,7.312-4.307,14.3-7.308,21.019-3.129,7.007-6.599,13.878-10.343,20.578-2.076,3.714-4.213,7.389-6.45,11.007-1.144,1.851-4.445,7.381-6.219,11.83.524,2.204,2.082,5.463,2.98,7.525,1.178,2.706,2.47,5.374,3.947,7.939,1.402,2.434,2.893,4.857,4.601,7.096,2.095-.213,4.185-.449,6.275-.729-.443-10.713.796-18.327,1.849-22.169,1.294-4.695,2.988-9.374,4.922-13.701,2.088-4.681,4.388-9.258,6.566-13.898,3.315-7.048,6.485-14.266,8.342-21.823.014.006.014.02.028.033,2.531,2.021,5.859,2.999,8.908,3.992,3.035.987,6.125,1.879,9.254,2.531,6.41,1.333,12.937,2.117,19.475,2.267,12.998.299,26.071-1.599,38.38-5.796,3.464-1.184,6.867-2.545,10.188-4.089,1.66-.776,3.307-1.585,4.927-2.45,1.014-.538,2.156-1.054,3.062-1.796.829,1.144,1.707,2.259,2.653,3.334,4.057,4.599,8.941,8.407,13.916,11.952,4.969,3.537,10.426,7.007,15.046,10.639,4.717,3.708,9.357,7.966,12.616,12.905,1.613,2.45,3.07,4.878,4.057,7.653.414,1.17.782,2.375,1.067,3.606.851-.327,1.702-.654,2.544-.995-.142-2.135-.605-4.278-1.3-6.387-.951-2.899-2.176-5.694-3.83-8.26-1.688-2.625-3.689-5.02-5.886-7.23-4.437-4.463-9.711-8.096-14.875-11.661-2.511-1.727-5.036-3.443-7.513-5.231-1.128-.817-2.442-1.796-3.315-2.477-1.15-.898-2.273-1.822-3.374-2.781-2.212-1.932-4.315-4-6.208-6.253-1.68-1.999-3.395-4.557-4.701-7.163-1.272-2.539-2.212-5.205-3.057-8.11-.876-3.019-1.585-6.081-2.314-9.136-1.489-6.237-3.32-12.265-6.347-17.945-3.035-5.688-6.82-10.96-9.595-16.789-2.566-5.374-4.37-11.592-3.057-17.551,1.022-4.646,4.09-9.156,8.506-11.237,4.246-1.682,5.914,2.47,6.956,4.407,1.211,2.245,2.47,4.469,3.7,6.7,2.281,4.144,4.709,8.151,7.541,11.946,5.634,7.545,12.297,14.164,19.822,19.816,2.09,1.572,4.213,2.966,6.56,4.13,2.355,1.164,4.805,2.027,7.336,2.672-4.213-4.319-6.757-5.619-11.072-10.672.926-7.911,1.607-15.844,1.995-23.804.388-8.006.353-16.055.169-24.06-.136-5.912-.388-11.838-.776-17.756,5.13,6.749,13.902,10.239,21.136,14.253,2.164,1.203,4.301,2.476,6.33,3.905.244.169.482.339.721.516.055.041.347.266.457.341.496.388.979.782,1.45,1.197.912.796,1.774,1.639,2.578,2.537.197.219.388.443.579.668.095.114.191.225.278.339.022.028.097.116.15.185.055.067.124.156.138.183.087.122.175.238.258.36.197.272.38.551.565.829.796,1.225,1.666,2.858,2.101,3.953,1.178,2.946,1.865,6.042,2.336,9.171,0,.014.026.211.039.272.022.163.041.327.061.49.049.386.096.768.136,1.156.096.815.171,1.639.246,2.456.142,1.672.252,3.354.354,5.026.217,3.606.374,7.218.524,10.824.299,7.157.563,14.319,1.278,21.449,1.272,12.775,3.955,25.559,10.725,36.641,2.919,4.79,6.403,9.156,10.54,12.945,2.151,1.973,5.241,4.049,8.677,5.898.876-.776,1.749-1.558,2.606-2.353-10.357-10.688-13.175-16.844-15.06-20.559ZM560.263,453.576c-60.782,6.523-83.674-13.532-86.839-28.353-.264-1.239-.394-2.444-.394-3.592,0-11.328,13.079-35.845,68.697-43.163,56.167-7.389,80.107,17.463,82.012,28.653.898,5.278-.144,11.7-3.96,18.095-7.383,12.387-25.171,24.675-59.515,28.361ZM650.999,467.153c-2.198-1.162-4.382-2.332-6.458-3.706-1.926-1.272-3.88-2.476-5.634-3.98.347-.394.679-.796,1.042-1.142.815-.782,1.769-1.497,2.824-1.918,1.816-.729,4.122-.756,5.585.693,1.552,1.544,2.09,3.933,2.539,5.993.28,1.28.482,2.558.593,3.864.014.158.014.313.028.471-.171-.097-.341-.185-.518-.274Z"/>
    <path class="cls-6" d="M488.116,655.959c.912,1.156,1.893,2.223,2.927,3.271,1.109,1.123,2.355,2.076,3.559,3.096-.286-2.674-.463-5.191-.557-7.564-2.09.278-4.179.524-6.275.727.122.158.232.321.347.471Z"/>
    <path class="cls-9" d="M482.939,431.923c-14.229-15.409,16.326-43.831,59.108-46.6,42.783-2.767,86.063,10.383,75.221,34.076"/>
    <path class="cls-6" d="M482.939,431.923c14.453,14.292,37.304,20.586,75.841,15.735,41.836-5.266,52.473-17.463,58.487-28.259-8.614-9.457-34.514-16.939-70.764-13.723-36.243,3.218-58.121,15.056-63.564,26.246Z"/>
    <path class="cls-10" d="M497.175,512.882c17.563,8.327,55.86,9.416,85.509,0,0,0,1.771,6.802,4.778,11.34-33.507,11.259-66.729,9.729-88.089,2.286l-2.198-13.626Z"/>
    <path class="cls-10" d="M630.829,483.659c-5.144,7.911-13.758,13.823-20.917,16.74,2.115,4.599,6.757,9.682,6.757,9.682,0,0,9.725-4.313,14.16-11.464,1.15-3.041.512-8.931,0-14.958Z"/>
    <path class="cls-10" d="M520.168,552.107c18.558,4.299,52.323,3.049,74.717-6.81,3.24,3.905,3.846,11.259,3.846,11.259-18.64,8.959-57.597,14.355-77.133,5.94.366-3.218-1.43-10.389-1.43-10.389Z"/>
    <path class="cls-4" d="M500.986,459.27c1.251-.829,2.619-1.511,4.041-2.021-5.083-1.578-10.016-3.626-14.719-6.19-6.028-3.293-14.379-9.307-17.441-12.647-.496,6.816-.244,18.579.796,23.96,1.402,7.265,6.92,8.401,12.801,19.402,1.231-3.974,2.871-7.817,4.92-11.442,2.43-4.293,5.493-8.348,9.603-11.062Z"/>
    <path class="cls-10" d="M527.041,461.257c-7.472-.498-14.883-1.79-22.008-4.008-1.422.51-2.789,1.197-4.041,2.021-4.118,2.714-7.173,6.769-9.603,11.054-2.048,3.62-3.695,7.462-4.92,11.442,2.539,4.748,5.138,11.32,7.499,21.027,1.729-4.652,2.899-9.965,3.307-11.387.756-2.647,1.654-5.327,2.907-7.783,1.278-2.497,2.932-4.74,5.089-6.55,2.137-1.79,4.695-3.021,7.35-3.825,5.825-1.761,11.984-1.755,17.998-2.182,7.037-.504,14.032-1.619,20.905-3.198,11.582-2.659,16.188-4.918,21.817-9.496-19.464,3.293-38.789,3.381-46.301,2.885Z"/>
    <path class="cls-8" d="M612.34,420.896c-27.798-19.15-102.188-12.218-123.515,10.597,2.702,2.442,6.056,4.238,6.056,4.238,35.788-14.774,82.734-13.217,111.586-7.781.008,0,3.506-3.32,5.873-7.054Z"/>
    <path class="cls-9" d="M594.239,510.693c-4.069-4.933-4.138-12.34-.673-15.852,5.69-5.768,7.832,4.088,10.637,9.158-.715,3.618-6.757,6.414-9.963,6.694Z"/>
    <path class="cls-9" d="M463.361,473.902c7.99-1.176,11.862,8.518,12.963,13.416-4.423,4.673-10.05,2.966-11.948,2.334-2.375-7.511-5.798-15.042-1.014-15.749Z"/>
    <g>
      <path class="cls-7" d="M481.938,95.648c3.933,14.327,13.514,26.844,25.37,35.626,11.444,8.476,25.299,12.551,37.086,20.422,5.587,3.728,10.656,8.395,13.874,14.368,3.907,7.238,4.662,15.49,3.458,23.524-2.607,17.415-14.373,31.007-23.641,45.3-8.663,13.361-15.535,29.538-8.908,45.224,4.92,11.647,14.747,20.45,23.001,29.702,9.296,10.414,17.059,21.823,17.829,36.203.945,17.667-7.206,33.905-11.385,50.647-2.688,10.788-7.212,28.905,8.744,45.94,4.193-.906,7.887-1.967,10.643-2.594-2.47-2.373-10.479-13.646-11.05-30.264-.286-8.376,2.109-16.681,5.695-24.109,7.458-15.45,20.911-30.396,19.489-48.654-1.3-16.701-17.632-25.776-28.227-36.517-5.818-5.906-11.233-13.226-12.86-21.526-1.538-7.836.679-15.495,5.967-21.441,4.927-5.538,11.684-9.198,18.258-12.409,8.179-3.986,16.419-7.83,24.198-12.571,13.957-8.517,27.089-20.626,31.268-37,3.655-14.313-1.014-30.347-11.424-40.749-12.128-12.116-30.331-14.449-44.321-23.68-6.594-4.354-12.297-10.088-15.229-17.531-2.974-7.551-2.606-16.204-.108-23.837,2.592-7.918,7.403-14.776,13.412-20.49,5.288-5.027,11.44-8.864,17.884-12.197h-105.585c-5.776,11.864-6.92,25.925-3.437,38.613Z"/>
      <path class="cls-7" d="M176.923,128.764c14.841,19.095,35.555,33.402,57.848,42.477,25.417,10.347,52.996,14.102,80.318,13.864,14.495-.129,28.887-1.578,43.299-3.007,14.644-1.449,29.458-2.748,44.164-1.306,11.454,1.116,22.477,4.245,32.958,9.055,14.642,6.728,23.428,16.612,27.613,28.286,3.572,9.959,2.131,20.776.13,31.014-2.156,11.027-5.798,21.782-7.029,32.98-1.083,9.79-.626,20.306,4.335,29.068,4.695,8.293,12.766,13.693,21.075,17.918,8.492,4.321,17.536,7.484,25.878,12.11,7.996,4.429,15.678,10.286,20.11,18.455,5.3,9.776,4.817,21.185,2.639,31.762-2.292,11.164-6.641,22.034-6.954,33.539-.197,7.149,1.253,14.646,4.892,20.379,4.634,1.158,10.595.199,18.64-.244-1.94-.782-3.744-1.837-5.437-3.279-5.757-4.904-8.295-13.435-8.738-20.728-.612-10.123,3.614-20.149,6.186-29.748,2.558-9.559,3.287-19.314,1.239-29.049-1.94-9.217-5.995-18.006-12.011-25.285-10.316-12.476-24.606-20.927-34.888-33.417-4.88-5.924-8.766-12.754-10.079-20.393-1.674-9.749.634-19.361,3.941-28.511,3.32-9.184,7.602-18.13,9.54-27.756,1.579-7.83,1.402-16.034-.244-23.837-3.334-15.816-12.521-30.64-25.88-39.919-16.167-11.231-36.324-12.504-55.37-13.252-19.619-.762-39.299-1.497-57.428-9.844-31.412-14.463-53.371-48.456-50.907-83.075h-153.423c-.007.878-.014,1.748-.041,2.626-.612,24.885,8.431,49.572,23.627,69.116Z"/>
      <path class="cls-7" d="M330.952,114.342c12.106,13.456,28.239,23.034,45.926,26.98,19.481,4.34,39.638,2.531,59.358,4.864,9.833,1.163,19.525,3.327,28.521,7.571,7.206,3.402,13.739,8.299,19.176,14.116,11.18,11.952,18.073,27.782,19.101,44.116.538,8.538-.79,16.966-3.444,25.075-3.088,9.429-7.519,18.408-9.989,28.04-2.123,8.287-2.286,16.974,1.306,24.885,3.151,6.946,8.303,12.653,13.794,17.843,11.917,11.253,25.913,20.675,33.931,35.396,4.585,8.429,7.245,17.87,7.783,27.442.565,10.042-1.83,19.483-4.723,29.007-2.694,8.872-5.634,18.388-3.639,27.715,1.477,6.905,6.097,13.203,13.528,16.769,4.138.236,8.262-.171,12.106-.831-17.488-15.517-11.554-41.231-7.403-55.163,4.981-16.728,12.697-35,6.818-52.518-4.132-12.299-14.079-21.579-22.646-30.87-8.677-9.41-17.279-19.838-19.034-32.954-2.436-18.143,8.187-34.313,18.026-48.504,9.329-13.456,20.334-29.456,16.884-46.79-2.94-14.776-16.401-22.061-28.84-28.109-6.375-3.095-12.84-6.055-18.774-9.959-6.41-4.218-12.317-9.306-17.244-15.191-9.656-11.538-15.842-25.878-15.787-41.062.028-7.306,1.442-14.538,4.246-21.286.557-1.34,1.184-2.626,1.851-3.884h-173.13c.061,1.347.136,2.694.225,4.034,1.292,19.524,8.955,38.681,22.075,53.266Z"/>
    </g>
    <path class="cls-5" d="M152.765,87.192c2.606,12.265,7.424,24.027,13.95,34.728,12.895,21.157,32.575,37.599,54.589,48.66,24.17,12.15,50.982,17.898,77.896,19.286,14.323.741,28.682.252,42.958-1.068,14.91-1.381,29.785-3.415,44.776-3.653,12.671-.197,25.281,1.088,37.476,4.687,19.08,5.633,40.993,28.64,34.527,54.919-5.022,20.422-13.447,43.041-5.028,63.893,3.748,9.286,10.826,16.149,19.304,21.238,8.187,4.904,17.203,8.122,25.797,12.204,8.112,3.85,16.393,8.557,21.961,15.795,6.369,8.287,7.212,18.804,5.654,28.83-1.763,11.381-6.064,22.238-7.186,33.736-.857,8.748,1.369,21.185,6.418,28.511-.504.114,16.133.815,30.376-.995,14.761-1.877,25.866-4.687,28.391-5.394-5.185-5.871-11.507-16.795-13.073-24.456-1.627-7.958-.612-16.271,2.192-23.843,6.036-16.334,19.101-29.381,22.605-46.783,1.654-8.21.831-16.543-3.212-23.952-3.681-6.749-9.39-12.149-15.091-17.185-6.125-5.414-12.508-10.625-17.053-17.516-4.254-6.456-6.976-14.449-3.811-21.961,2.728-6.489,8.9-10.78,14.833-14.094,7.356-4.116,15.182-7.361,22.613-11.34,14.753-7.905,29.084-18.313,37.013-33.463,7.159-13.68,7.375-29.592.809-43.551-3.198-6.796-8.017-12.782-13.991-17.333-6.948-5.293-15.141-8.51-23.178-11.762-13.916-5.626-30.486-13.191-32.684-29.98-1.048-8.007,1.253-16.286,5.363-23.136,4.327-7.211,10.574-12.694,16.97-18.007,3.104-2.578,6.424-4.891,9.752-7.17h-3.716c-6.444,3.333-12.596,7.17-17.882,12.197-6.009,5.714-10.82,12.572-13.414,20.49-2.497,7.633-2.871,16.279.108,23.837,2.934,7.442,8.644,13.184,15.229,17.531,13.993,9.231,32.202,11.565,44.321,23.68,10.412,10.402,15.072,26.436,11.425,40.749-4.177,16.374-17.311,28.483-31.268,37-7.777,4.748-16.019,8.585-24.198,12.571-6.574,3.211-13.331,6.871-18.256,12.409-5.288,5.946-7.507,13.599-5.969,21.441,1.627,8.293,7.043,15.619,12.862,21.526,10.587,10.747,26.926,19.822,28.225,36.517,1.424,18.258-12.031,33.204-19.489,48.654-3.586,7.429-5.987,15.734-5.695,24.107.573,16.628,8.581,27.893,11.052,30.266-2.757.626-6.452,1.688-10.643,2.594-15.958-17.035-11.44-35.152-8.746-45.94,4.179-16.742,12.324-32.98,11.385-50.647-.768-14.381-8.533-25.789-17.829-36.203-8.254-9.252-18.079-18.055-23.001-29.702-6.627-15.686.246-31.863,8.908-45.224,9.268-14.293,21.035-27.885,23.641-45.3,1.205-8.034.449-16.286-3.456-23.524-3.22-5.966-8.289-10.64-13.876-14.368-11.793-7.871-25.64-11.946-37.086-20.422-11.862-8.783-21.435-21.3-25.37-35.626-3.484-12.694-2.34-26.755,3.437-38.619h-3.598c-.668,1.259-1.294,2.544-1.851,3.884-2.81,6.748-4.226,13.98-4.246,21.286-.055,15.184,6.131,29.524,15.787,41.062,4.927,5.884,10.834,10.973,17.244,15.191,5.934,3.905,12.397,6.864,18.774,9.959,12.439,6.048,25.9,13.333,28.84,28.109,3.448,17.333-7.555,33.334-16.884,46.79-9.839,14.191-20.462,30.361-18.026,48.503,1.763,13.116,10.357,23.544,19.032,32.954,8.569,9.292,18.524,18.564,22.648,30.87,5.873,17.51-1.837,35.79-6.82,52.518-4.15,13.931-10.083,39.646,7.405,55.163-3.844.66-7.968,1.075-12.106.831-7.438-3.565-12.059-9.865-13.528-16.769-1.995-9.327.951-18.843,3.639-27.715,2.893-9.524,5.288-18.965,4.723-29.007-.538-9.577-3.19-19.013-7.785-27.442-8.015-14.721-22.014-24.137-33.929-35.394-5.491-5.191-10.643-10.899-13.794-17.845-3.592-7.911-3.429-16.598-1.306-24.885,2.47-9.632,6.907-18.611,9.989-28.04,2.655-8.109,3.98-16.538,3.444-25.075-1.028-16.333-7.929-32.163-19.103-44.116-5.436-5.816-11.968-10.715-19.176-14.116-8.996-4.245-18.678-6.408-28.519-7.572-19.714-2.34-39.876-.524-59.36-4.864-17.685-3.946-33.82-13.524-45.926-26.98-13.118-14.585-20.781-33.742-22.067-53.272-.089-1.347-.163-2.687-.225-4.034h-1.899c-2.464,34.619,19.495,68.613,50.907,83.075,18.134,8.347,37.808,9.075,57.426,9.844,19.048.741,39.205,2.02,55.372,13.252,13.358,9.279,22.546,24.102,25.88,39.919,1.646,7.803,1.824,16.007.244,23.837-1.938,9.626-6.225,18.565-9.54,27.756-3.307,9.156-5.621,18.762-3.941,28.511,1.314,7.645,5.199,14.469,10.079,20.393,10.282,12.49,24.578,20.947,34.888,33.417,6.017,7.279,10.072,16.06,12.011,25.285,2.048,9.743,1.327,19.489-1.239,29.049-2.572,9.599-6.798,19.625-6.186,29.748.443,7.293,2.98,15.816,8.738,20.728,1.694,1.442,3.49,2.489,5.435,3.279-8.043.443-14.004,1.402-18.638.244-3.639-5.733-5.089-13.23-4.892-20.379.313-11.505,4.662-22.374,6.954-33.539,2.178-10.578,2.661-21.986-2.639-31.762-4.437-8.177-12.12-14.026-20.11-18.455-8.342-4.626-17.386-7.789-25.878-12.11-8.309-4.224-16.387-9.624-21.076-17.918-4.959-8.762-5.416-19.278-4.335-29.068,1.239-11.198,4.872-21.953,7.031-32.98,2.001-10.231,3.443-21.055-.13-31.014-4.185-11.674-12.97-21.565-27.615-28.286-10.471-4.81-21.502-7.939-32.956-9.055-14.698-1.435-29.519-.143-44.164,1.306-14.412,1.429-28.799,2.878-43.299,3.007-27.316.238-54.901-3.517-80.318-13.864-22.294-9.075-43-23.388-57.849-42.477-15.195-19.544-24.232-44.231-23.62-69.109.02-.878.034-1.748.041-2.626h-2.137c-1.592,9.932-.497,20.497,1.558,30.164Z"/>
  </g>
</svg>